<svg width="68.408081" height="85.035400" viewBox="0 0 68.4081 85.0354" fill="none" xmlns="http://www.w3.org/2000/svg" xmlns:xlink="http://www.w3.org/1999/xlink">
	<desc>
			Created with Pixso.
	</desc>
	<defs/>
	<path d="M43.74 1.28C43.05 2.02 41.41 3.56 40.11 4.75C35.76 8.68 34.87 10.08 34.75 13.29C34.66 15.9 35.29 17.88 36.93 20.13C37.36 20.73 37.72 21.19 37.72 21.13C37.72 21.09 37.45 20.53 37.12 19.9C35.86 17.49 35.49 14.57 36.18 12.49C36.82 10.54 37.77 9.37 40.96 6.54C41.64 5.96 42.46 5.14 42.81 4.75L43.45 4.04L43.36 7.04C43.32 9.04 43.21 10.41 43.05 11.13C42.49 13.55 41.41 15.47 39.45 17.58C38.02 19.11 37.62 19.98 38.01 20.7C38.07 20.83 38.17 21.37 38.23 21.89L38.32 22.83L37.47 23.38C34.57 25.21 32.53 27.86 31.71 30.87C31.48 31.68 31.39 32.45 31.39 33.7C31.38 36.35 31.89 38.55 33.18 41.33L33.85 42.79L33.61 43.94C33.37 45.1 33.3 48.55 33.51 49.46C33.58 49.82 33.67 49.89 34.05 49.89L34.5 49.89L34.6 48.04C34.99 41.45 37.27 37.62 42.63 34.57C46.75 32.22 47.97 30.9 50.71 25.8C52.87 21.75 53.56 20.67 55.23 18.62L56.18 17.46L54.84 18.01C52.68 18.89 49.57 19.78 45.82 20.59C42.22 21.34 40.59 21.79 39.34 22.39C38.95 22.58 38.59 22.73 38.55 22.73C38.5 22.73 38.49 22.16 38.53 21.45C38.61 19.91 38.62 19.88 40.95 17.56C42.21 16.32 42.73 15.66 43.17 14.84C44.13 13.02 44.2 12.49 44.1 8.98C43.99 5.68 44.17 3.53 44.77 1.14C44.92 0.53 45.04 0.01 45.03 0C45.01 -0.02 44.43 0.57 43.74 1.28ZM50.65 23.75C47.64 29.05 45.54 31.3 40.72 34.41C39.78 35.03 38.67 35.8 38.26 36.12C36.78 37.29 35.08 39.61 34.44 41.35C34.29 41.76 34.12 42.05 34.08 41.98C33.84 41.62 33.19 38.7 33.04 37.34C32.55 32.82 34.3 28.87 37.99 26.22C40.11 24.68 42.03 23.98 45.9 23.31C47.55 23.02 50.17 22.29 51.3 21.82C51.55 21.72 51.76 21.65 51.79 21.66C51.81 21.67 51.3 22.62 50.65 23.75Z" fill="#151618" fill-opacity="1.000000" fill-rule="nonzero"/>
	<path d="M17.34 4.86C18.23 8.09 18.5 12.32 18.07 16.28C17.53 21.22 17.98 22.71 21.17 26.77C22.04 27.86 23.01 29.28 23.35 29.92C24.32 31.8 24.84 34.46 24.86 37.68L24.86 39.01L24.5 38.87C23.66 38.57 22.16 38.44 18.37 38.37C16.16 38.32 13.88 38.22 13.3 38.17C12.73 38.09 12.24 38.07 12.22 38.08C12.19 38.09 12.49 38.32 12.9 38.6C14.58 39.76 16.28 41.27 18.25 43.35C19.41 44.57 20.8 45.91 21.35 46.33C23.71 48.12 26.41 49.17 29.67 49.54C31.01 49.7 30.48 49.21 28.21 48.27C24.6 46.75 22.8 45.51 20.02 42.69C18.98 41.62 17.71 40.49 17.22 40.16L16.33 39.59L18.09 39.59C22.71 39.59 25.32 40.45 27.54 42.7C28.64 43.8 29.43 45.18 29.84 46.66C29.96 47.13 30.09 47.55 30.13 47.59C30.28 47.72 30.24 45.9 30.08 44.9C29.73 42.81 28 40.52 26.02 39.51L25.15 39.08L25.15 36.72C25.15 32.01 24.72 30.39 22.45 26.72C19.46 21.84 18.97 19.91 19.05 13.16C19.08 11.06 19.13 9.34 19.14 9.35C19.14 9.37 19.46 9.77 19.82 10.24C20.19 10.72 21.52 12.14 22.78 13.4C25.86 16.46 27.03 18.22 27.76 20.88C28.58 23.79 27.91 27.86 25.97 31.8C25.62 32.53 25.35 33.13 25.36 33.13C25.39 33.13 25.65 32.79 25.94 32.35C28.29 28.97 29.46 25.15 29.28 21.58C29.18 19.63 28.78 18.11 27.93 16.41C27.06 14.66 26.06 13.43 23.17 10.55C20.92 8.29 19.37 6.63 17.74 4.79L17.12 4.07L17.34 4.86Z" fill="#151618" fill-opacity="1.000000" fill-rule="nonzero"/>
	<path d="M44.23 40.03C40.81 40.73 38.48 43.64 38.46 47.21C38.46 47.92 38.43 47.98 38 48.12C37.22 48.38 37.79 48.5 40.21 48.6C43.66 48.75 45.78 48.36 47.58 47.25C48.08 46.95 49.32 45.99 50.36 45.12C52.46 43.38 53.55 42.64 55.32 41.74L56.51 41.14L55.06 41.04C54.28 41 52.89 40.82 51.95 40.66C51.02 40.5 49.55 40.25 48.68 40.1C46.85 39.79 45.52 39.76 44.23 40.03ZM49.19 41.81C49.93 41.99 51.07 42.17 51.7 42.21L52.87 42.31L51.23 43.57C48.74 45.48 47.09 46.35 44.97 46.86C43.89 47.13 39.05 47.83 38.94 47.73C38.81 47.6 39.24 46.28 39.77 45.24C40.69 43.43 42.41 42.13 44.59 41.6C45.7 41.33 47.45 41.41 49.19 41.81Z" fill="#151618" fill-opacity="1.000000" fill-rule="nonzero"/>
	<path d="M10.72 55.64C10.53 63.38 10.96 66.01 12.99 69.91C14.05 71.95 15.78 74.35 17.02 75.47C17.32 75.74 17.56 76 17.56 76.04C17.56 76.1 13.81 76.12 9.26 76.09C4.68 76.06 0.79 76.09 0.59 76.13C0.41 76.17 0.17 76.38 0.08 76.56C-0.05 76.87 -0.04 76.97 0.19 77.21C0.46 77.5 0.62 77.5 34.13 77.5C57.07 77.5 67.9 77.46 68.11 77.36C68.5 77.15 68.5 76.4 68.11 76.2C67.91 76.12 64.82 76.06 59.07 76.06L50.33 76.06L51.25 75.01C53.87 72.06 55.57 68.81 56.68 64.68C56.99 63.54 57.02 63.05 57.07 57.29L57.15 51.14L33.98 51.14L10.82 51.14L10.72 55.64Z" fill="#151618" fill-opacity="1.000000" fill-rule="nonzero"/>
	<path d="M4.47 79.45C9.56 81.74 17.39 83.61 24.7 84.27C25.99 84.4 26.58 84.5 26.35 84.56C26.03 84.64 26.02 84.65 26.28 84.67C26.44 84.68 27.46 84.75 28.53 84.84C34.03 85.22 45.82 84.99 45.49 84.5C45.45 84.43 45.46 84.4 45.55 84.44C45.63 84.48 45.9 84.47 46.14 84.4C46.56 84.29 46.56 84.29 45.97 84.26C45.61 84.24 46.38 84.07 47.85 83.83C52.44 83.1 56.21 82.21 59.31 81.13C61.08 80.51 64.53 79.1 64.77 78.87C64.84 78.8 53.1 78.74 33.94 78.76L2.97 78.77L4.47 79.45Z" fill="#151618" fill-opacity="1.000000" fill-rule="nonzero"/>
</svg>
