<svg width="36.444824" height="45.352173" viewBox="0 0 36.4448 45.3522" fill="none" xmlns="http://www.w3.org/2000/svg" xmlns:xlink="http://www.w3.org/1999/xlink">
	<desc>
			Created with Pixso.
	</desc>
	<defs/>
	<path id="Vector" d="M23.3 0.68C22.93 1.07 22.06 1.9 21.37 2.53C19.05 4.63 18.58 5.37 18.51 7.09C18.46 8.48 18.8 9.53 19.67 10.73C19.9 11.05 20.09 11.3 20.09 11.27C20.09 11.24 19.95 10.95 19.77 10.61C19.1 9.33 18.9 7.77 19.27 6.66C19.61 5.62 20.12 4.99 21.82 3.49C22.18 3.17 22.62 2.74 22.8 2.53L23.15 2.15L23.1 3.75C23.08 4.82 23.02 5.55 22.93 5.93C22.64 7.22 22.06 8.25 21.01 9.37C20.25 10.19 20.04 10.66 20.25 11.04C20.28 11.11 20.33 11.4 20.37 11.67L20.41 12.18L19.96 12.47C18.42 13.44 17.33 14.86 16.89 16.46C16.77 16.89 16.72 17.3 16.72 17.97C16.71 19.38 16.99 20.56 17.67 22.04L18.03 22.82L17.9 23.43C17.78 24.05 17.74 25.89 17.85 26.37C17.89 26.57 17.94 26.6 18.14 26.6L18.38 26.6L18.43 25.62C18.64 22.1 19.85 20.06 22.71 18.43C24.91 17.18 25.55 16.48 27.02 13.76C28.17 11.6 28.54 11.02 29.42 9.93L29.93 9.31L29.21 9.6C28.06 10.07 26.41 10.55 24.41 10.98C22.49 11.38 21.62 11.62 20.96 11.94C20.75 12.04 20.56 12.12 20.53 12.12C20.51 12.12 20.5 11.82 20.53 11.43C20.57 10.62 20.57 10.6 21.81 9.36C22.48 8.7 22.76 8.35 23 7.91C23.51 6.94 23.55 6.66 23.49 4.79C23.44 3.03 23.53 1.88 23.85 0.61C23.93 0.28 24 0 23.99 0C23.98 -0.01 23.67 0.3 23.3 0.68ZM26.98 12.67C25.38 15.49 24.26 16.69 21.69 18.35C21.19 18.68 20.6 19.09 20.38 19.26C19.59 19.89 18.69 21.12 18.34 22.05C18.26 22.27 18.18 22.42 18.15 22.39C18.02 22.19 17.68 20.64 17.6 19.91C17.34 17.5 18.27 15.39 20.24 13.98C21.37 13.16 22.39 12.79 24.45 12.43C25.33 12.28 26.73 11.89 27.33 11.63C27.46 11.58 27.58 11.54 27.59 11.55C27.6 11.56 27.33 12.06 26.98 12.67Z" fill="#151618" fill-opacity="1.000000" fill-rule="nonzero"/>
	<path id="Vector" d="M9.24 2.59C9.71 4.31 9.85 6.57 9.62 8.68C9.34 11.32 9.58 12.11 11.28 14.28C11.74 14.86 12.25 15.62 12.44 15.95C12.95 16.95 13.23 18.38 13.24 20.09L13.24 20.8L13.05 20.73C12.6 20.57 11.8 20.5 9.78 20.46C8.61 20.44 7.39 20.38 7.08 20.35C6.78 20.31 6.52 20.3 6.51 20.31C6.49 20.31 6.65 20.44 6.87 20.58C7.77 21.2 8.67 22.01 9.72 23.12C10.34 23.77 11.08 24.48 11.37 24.71C12.63 25.66 14.07 26.22 15.81 26.42C16.52 26.51 16.23 26.24 15.03 25.74C13.1 24.93 12.14 24.27 10.67 22.76C10.11 22.2 9.43 21.59 9.17 21.42L8.7 21.11L9.63 21.11C12.1 21.11 13.49 21.57 14.67 22.77C15.26 23.36 15.68 24.09 15.89 24.88C15.96 25.14 16.03 25.36 16.05 25.38C16.13 25.45 16.11 24.48 16.02 23.94C15.84 22.83 14.92 21.61 13.86 21.07L13.4 20.84L13.4 19.58C13.4 17.07 13.17 16.2 11.96 14.25C10.36 11.64 10.1 10.62 10.15 7.01C10.16 5.9 10.19 4.98 10.2 4.99C10.2 4.99 10.36 5.21 10.55 5.46C10.75 5.71 11.46 6.47 12.14 7.14C13.77 8.77 14.4 9.72 14.79 11.13C15.23 12.68 14.87 14.86 13.84 16.95C13.64 17.35 13.5 17.67 13.51 17.67C13.53 17.67 13.66 17.48 13.82 17.25C15.07 15.45 15.69 13.41 15.6 11.51C15.54 10.47 15.33 9.65 14.88 8.75C14.42 7.82 13.88 7.16 12.34 5.62C11.14 4.42 10.32 3.53 9.45 2.55L9.12 2.17L9.24 2.59Z" fill="#151618" fill-opacity="1.000000" fill-rule="nonzero"/>
	<path id="Vector" d="M23.56 21.35C21.74 21.72 20.5 23.27 20.49 25.17C20.49 25.55 20.47 25.58 20.24 25.66C19.82 25.8 20.13 25.87 21.42 25.92C23.26 26 24.39 25.79 25.35 25.2C25.61 25.04 26.28 24.53 26.83 24.06C27.95 23.14 28.52 22.74 29.47 22.26L30.1 21.94L29.33 21.89C28.92 21.86 28.17 21.77 27.68 21.68C27.18 21.6 26.4 21.46 25.93 21.39C24.96 21.22 24.25 21.2 23.56 21.35ZM26.2 22.3C26.6 22.39 27.2 22.49 27.54 22.51L28.16 22.56L27.29 23.23C25.96 24.25 25.08 24.72 23.95 24.99C23.38 25.14 20.8 25.51 20.75 25.46C20.67 25.39 20.91 24.68 21.19 24.12C21.67 23.16 22.59 22.47 23.75 22.18C24.35 22.04 25.28 22.09 26.2 22.3Z" fill="#151618" fill-opacity="1.000000" fill-rule="nonzero"/>
	<path id="Vector" d="M5.71 29.67C5.61 33.8 5.83 35.2 6.92 37.28C7.49 38.37 8.41 39.65 9.06 40.25C9.22 40.39 9.35 40.53 9.35 40.55C9.35 40.59 7.36 40.59 4.93 40.58C2.49 40.56 0.42 40.58 0.31 40.6C0.22 40.62 0.09 40.73 0.04 40.83C-0.03 40.99 -0.02 41.05 0.1 41.18C0.24 41.33 0.33 41.33 18.18 41.33C30.4 41.33 36.17 41.31 36.28 41.25C36.49 41.15 36.49 40.75 36.28 40.64C36.18 40.59 34.53 40.56 31.47 40.56L26.81 40.56L27.3 40C28.7 38.43 29.6 36.7 30.19 34.49C30.36 33.89 30.38 33.63 30.4 30.55L30.44 27.27L18.1 27.27L5.76 27.27L5.71 29.67Z" fill="#151618" fill-opacity="1.000000" fill-rule="nonzero"/>
	<path id="Vector" d="M2.38 42.37C5.09 43.59 9.26 44.59 13.15 44.94C13.84 45.01 14.16 45.06 14.04 45.09C13.87 45.14 13.86 45.15 14 45.15C14.08 45.16 14.63 45.2 15.2 45.24C18.13 45.45 24.41 45.33 24.23 45.06C24.21 45.03 24.22 45.01 24.27 45.03C24.31 45.06 24.45 45.05 24.58 45.01C24.8 44.95 24.8 44.95 24.49 44.94C24.3 44.93 24.71 44.84 25.49 44.71C27.93 44.32 29.94 43.84 31.6 43.27C32.54 42.94 34.37 42.18 34.5 42.06C34.54 42.02 28.29 41.99 18.08 42L1.58 42.01L2.38 42.37Z" fill="#151618" fill-opacity="1.000000" fill-rule="nonzero"/>
</svg>
