<svg width="54.996582" height="72.000366" viewBox="0 0 54.9966 72.0004" fill="none" xmlns="http://www.w3.org/2000/svg" xmlns:xlink="http://www.w3.org/1999/xlink">
	<desc>
			Created with Pixso.
	</desc>
	<defs/>
	<path id="Vector" d="M35.16 1.09C34.61 1.71 33.29 3.02 32.24 4.02C28.75 7.35 28.03 8.54 27.94 11.25C27.86 13.46 28.37 15.14 29.69 17.04C30.04 17.55 30.33 17.94 30.33 17.89C30.33 17.85 30.11 17.38 29.84 16.85C28.83 14.81 28.53 12.33 29.08 10.57C29.6 8.92 30.36 7.93 32.93 5.54C33.47 5.04 34.14 4.35 34.41 4.02L34.93 3.42L34.86 5.96C34.82 7.65 34.74 8.82 34.61 9.42C34.16 11.47 33.29 13.1 31.71 14.88C30.57 16.18 30.24 16.92 30.55 17.53C30.6 17.64 30.69 18.1 30.74 18.53L30.81 19.33L30.12 19.79C27.79 21.35 26.15 23.59 25.49 26.14C25.31 26.82 25.24 27.47 25.24 28.53C25.22 30.77 25.63 32.64 26.67 35L27.21 36.23L27.02 37.2C26.83 38.19 26.77 41.11 26.94 41.87C27 42.18 27.07 42.24 27.37 42.24L27.73 42.24L27.82 40.67C28.13 35.09 29.96 31.85 34.27 29.27C37.59 27.28 38.56 26.16 40.77 21.85C42.51 18.41 43.06 17.5 44.4 15.77L45.16 14.78L44.09 15.25C42.35 16 39.85 16.75 36.84 17.43C33.94 18.07 32.63 18.45 31.63 18.96C31.31 19.12 31.02 19.25 30.99 19.25C30.95 19.25 30.94 18.76 30.98 18.16C31.04 16.86 31.05 16.83 32.92 14.87C33.93 13.81 34.35 13.26 34.7 12.56C35.48 11.02 35.54 10.57 35.45 7.6C35.37 4.81 35.51 2.99 35.99 0.97C36.11 0.44 36.21 0.01 36.2 0C36.19 -0.02 35.72 0.48 35.16 1.09ZM40.72 20.11C38.3 24.6 36.61 26.5 32.74 29.14C31.98 29.66 31.08 30.31 30.76 30.58C29.57 31.57 28.2 33.54 27.68 35.01C27.56 35.36 27.43 35.6 27.39 35.54C27.2 35.24 26.68 32.76 26.56 31.61C26.16 27.79 27.58 24.44 30.54 22.2C32.24 20.9 33.79 20.3 36.9 19.73C38.23 19.49 40.34 18.87 41.24 18.47C41.45 18.39 41.61 18.33 41.64 18.34C41.65 18.35 41.24 19.15 40.72 20.11Z" fill="#151618" fill-opacity="1.000000" fill-rule="nonzero"/>
	<path id="Vector" d="M13.94 4.12C14.66 6.85 14.87 10.44 14.53 13.79C14.09 17.97 14.45 19.23 17.02 22.67C17.72 23.59 18.5 24.79 18.77 25.33C19.55 26.92 19.97 29.18 19.98 31.9L19.98 33.03L19.69 32.91C19.02 32.66 17.81 32.55 14.77 32.49C12.99 32.45 11.16 32.36 10.69 32.31C10.23 32.25 9.84 32.23 9.83 32.24C9.8 32.25 10.04 32.45 10.37 32.68C11.72 33.66 13.09 34.94 14.67 36.7C15.61 37.73 16.72 38.88 17.16 39.23C19.06 40.75 21.23 41.63 23.85 41.95C24.93 42.08 24.5 41.67 22.68 40.87C19.78 39.58 18.33 38.54 16.1 36.14C15.26 35.24 14.24 34.28 13.84 34L13.12 33.52L14.54 33.52C18.26 33.52 20.35 34.25 22.14 36.15C23.03 37.09 23.66 38.26 23.99 39.51C24.08 39.91 24.19 40.26 24.23 40.3C24.35 40.41 24.31 38.86 24.18 38.01C23.9 36.25 22.51 34.31 20.92 33.46L20.22 33.09L20.22 31.09C20.22 27.1 19.87 25.73 18.05 22.62C15.64 18.49 15.25 16.86 15.32 11.14C15.34 9.37 15.38 7.91 15.39 7.92C15.39 7.93 15.64 8.27 15.93 8.67C16.23 9.07 17.3 10.28 18.32 11.35C20.78 13.93 21.73 15.43 22.32 17.68C22.98 20.14 22.44 23.59 20.88 26.92C20.59 27.54 20.38 28.05 20.39 28.05C20.41 28.05 20.62 27.76 20.86 27.39C22.74 24.53 23.69 21.3 23.54 18.27C23.46 16.62 23.13 15.33 22.45 13.9C21.76 12.42 20.95 11.37 18.63 8.93C16.82 7.02 15.57 5.61 14.26 4.06L13.76 3.45L13.94 4.12Z" fill="#151618" fill-opacity="1.000000" fill-rule="nonzero"/>
	<path id="Vector" d="M35.56 33.89C32.8 34.49 30.93 36.95 30.92 39.97C30.92 40.57 30.9 40.62 30.55 40.74C29.92 40.96 30.38 41.07 32.32 41.15C35.1 41.27 36.8 40.95 38.25 40.01C38.65 39.75 39.65 38.94 40.49 38.21C42.18 36.73 43.05 36.1 44.47 35.34L45.43 34.84L44.27 34.75C43.64 34.72 42.52 34.56 41.77 34.43C41.02 34.29 39.83 34.08 39.13 33.95C37.66 33.69 36.6 33.66 35.56 33.89ZM39.54 35.4C40.14 35.55 41.05 35.71 41.56 35.74L42.5 35.83L41.19 36.89C39.18 38.51 37.85 39.24 36.15 39.68C35.28 39.91 31.39 40.5 31.31 40.42C31.2 40.31 31.55 39.18 31.97 38.3C32.71 36.77 34.1 35.67 35.85 35.22C36.74 34.99 38.14 35.07 39.54 35.4Z" fill="#151618" fill-opacity="1.000000" fill-rule="nonzero"/>
	<path id="Vector" d="M8.61 47.11C8.47 53.67 8.81 55.89 10.44 59.19C11.3 60.92 12.69 62.95 13.68 63.9C13.92 64.13 14.12 64.35 14.12 64.39C14.12 64.44 11.1 64.45 7.44 64.42C3.76 64.4 0.63 64.42 0.48 64.46C0.33 64.5 0.14 64.67 0.06 64.83C-0.04 65.08 -0.03 65.17 0.15 65.38C0.37 65.62 0.5 65.62 27.44 65.62C45.88 65.62 54.59 65.58 54.76 65.5C55.07 65.33 55.07 64.69 54.76 64.52C54.6 64.45 52.11 64.4 47.49 64.4L40.46 64.4L41.2 63.51C43.3 61.01 44.67 58.27 45.57 54.77C45.82 53.8 45.84 53.39 45.88 48.51L45.94 43.3L27.32 43.3L8.7 43.3L8.61 47.11Z" fill="#151618" fill-opacity="1.000000" fill-rule="nonzero"/>
	<path id="Vector" d="M3.59 67.27C7.68 69.21 13.98 70.79 19.85 71.35C20.89 71.46 21.36 71.55 21.18 71.59C20.93 71.66 20.92 71.68 21.12 71.69C21.26 71.7 22.08 71.76 22.94 71.83C27.36 72.16 36.84 71.96 36.57 71.55C36.54 71.49 36.55 71.46 36.62 71.5C36.68 71.53 36.9 71.52 37.09 71.46C37.43 71.37 37.43 71.37 36.96 71.34C36.67 71.33 37.28 71.19 38.47 70.98C42.16 70.36 45.19 69.61 47.68 68.7C49.11 68.17 51.87 66.97 52.07 66.78C52.13 66.72 42.69 66.67 27.29 66.68L2.39 66.7L3.59 67.27Z" fill="#151618" fill-opacity="1.000000" fill-rule="nonzero"/>
</svg>
